# xmcd CD database file
#
# Track frame offsets:
#	150
#	26575
#	52928
#	75584
#	99894
#	118407
#	141336
#
# Disc length: 2324 seconds
#
# Revision: 0
# Processed by: cddbd v1.5.2PL0 Copyright (c) Steve Scherf et al.
# Submitted via: CDex 1.70beta3
#
DISCID=54091207
DTITLE=→Pia-no-jaC← - Re:EARTH
DYEAR=2013
DGENRE=Jazz
TTITLE0=METROPOLIS
TTITLE1=Savanna
TTITLE2=Flor do Sol
TTITLE3=Triad
TTITLE4="Destruction" a moll Op. 1, No. 38
TTITLE5=風雅
TTITLE6=Evergreen
EXTD=YEAR: 2013
EXTT0=
EXTT1=
EXTT2=
EXTT3=
EXTT4=
EXTT5=
EXTT6=
PLAYORDER=
